<?xml version="1.0" encoding="utf-8"?>
<!-- Generator: Adobe Illustrator 21.0.0, SVG Export Plug-In . SVG Version: 6.00 Build 0)  -->
<svg version="1.1" id="图层_1" xmlns="http://www.w3.org/2000/svg" xmlns:xlink="http://www.w3.org/1999/xlink" x="0px" y="0px"
	 viewBox="0 0 120 120" style="enable-background:new 0 0 120 120;" xml:space="preserve">
<style type="text/css">
	.st0{fill:#0ea15b;}
	.st1{fill:#FFFFFF;}
</style>
<g>
	<circle class="st0" cx="56" cy="68.1" r="27.1"/>
	<path class="st0" d="M52.9,36.9c1.8-0.3,3.7-0.4,5.6-0.4C72.7,37,84.2,47.1,86.3,60.2l0.4,0.3l3.5-41.2L52.9,36.9z"/>
	<path class="st1" d="M33.2,68.7c0-12.7,9.1-22.9,20.5-23.4c-0.3,0-0.5,0-0.8,0c-11.7,0-21.2,10.5-21.2,23.4s9.5,23.4,21.2,23.4
		c0.3,0,0.5,0,0.8,0C42.3,91.6,33.2,81.3,33.2,68.7z"/>
</g>
</svg>
